<?xml version="1.0" encoding="utf-8"?>
<svg xmlns="http://www.w3.org/2000/svg" viewBox="0 0 64 64" width="512" height="512">
  <path d="M56.177,16.832c-0.547-4.731-4.278-8.462-9.009-9.009C43.375,7.384,38.264,7,32,7S20.625,7.384,16.832,7.823c-4.731,0.547-8.462,4.278-9.009,9.009C7.384,20.625,7,25.736,7,32s0.384,11.375,0.823,15.168c0.547,4.731,4.278,8.462,9.009,9.009C20.625,56.616,25.736,57,32,57s11.375-0.384,15.168-0.823c4.731-0.547,8.462-4.278,9.009-9.009C56.616,43.375,57,38.264,57,32S56.616,20.625,56.177,16.832z M44.5,23.5c-0.08,0.08-0.17,0.16-0.25,0.24c-0.87-0.16-1.8-0.24-2.75-0.24c0.22-0.89,0.5-1.87,0.5-2.88c0-1.42-0.22-2.67-0.61-3.7C43.65,15.37,47,16,47,16S47.26,20.74,44.5,23.5z M40,21c0,0.92-0.1,1.79-0.29,2.57c-1.04,0.11-1.98,0.36-2.73,0.71c-0.14-2.89-1.14-5-2.64-6.04C34.83,16.32,37,15,37,15S40,17.69,40,21z M47,28c0,0-1.25,2.11-3.09,2.62c-1.52-1.56-4.42-2.63-7.41-2.62c0.08-0.34,0.17-0.68,0.24-1.03c0.09-0.38,0.16-0.78,0.21-1.18c0.62-0.29,1.38-0.51,2.21-0.64C39.74,25.05,40.36,25,41,25C44.31,25,47,28,47,28z M35,25c0,1.21-0.18,2.33-0.49,3.27c-0.56,0.13-1.08,0.3-1.53,0.51c-0.19-3.21-1.61-5.63-3.6-6.69C29.89,20.25,32,19,32,19S35,21.69,35,25z M42,33c0,0-1.516,2.188-4.353,3.068C36.293,34.804,35,34.054,32.5,33.5c0.26-0.8,0.4-1.83,0.46-2.82c0.01-0.09,0.01-0.18,0.01-0.27c0.14-0.04,0.29-0.08,0.44-0.11C34.19,30.11,35.07,30,36,30C39.31,30,42,33,42,33z M31,29.5c0,1.474-0.3,2.825-0.808,3.911c-1.142,0.076-2.071,0.247-3.292,0.577c-0.368-2.945-1.825-5.121-3.789-6.019C23.53,25.12,27,23,27,23S31,25.91,31,29.5z M38,39c0,0-3.07,3.14-6.26,3.86c-1.5-1.12-3.46-2.35-5.4-2.88c0.12-0.31,0.21-0.65,0.3-0.98c0.22-0.91,0.32-2.01,0.35-3C27,35.87,27,35.75,27,35.63c0.61-0.24,1.28-0.42,2.01-0.52C29.49,35.04,29.99,35,30.5,35C34.09,35,38,39,38,39z M25,35.5c0,1.61-0.36,3.08-0.95,4.22c-1.95,0.06-3.7,0.6-4.99,1.46C17.83,40.07,17,37.94,17,35.5c0-3.59,4-6.5,4-6.5S25,31.91,25,35.5z M24.5,41.5c3.59,0,7.5,4,7.5,4s-3.91,4-7.5,4s-6.5-1.791-6.5-4S20.91,41.5,24.5,41.5z" fill="#FFFFFF" />
</svg>