<?xml version="1.0" encoding="utf-8"?>
<svg xmlns="http://www.w3.org/2000/svg" viewBox="0 0 30 30" width="480" height="480">
  <path d="M15 3C13.35499 3 12 4.3549904 12 6C12 6.4713436 12.122878 6.911876 12.320312 7.3105469C6.9851038 8.5295347 3 13.295545 3 19L3 21L27 21L27 19C27 13.295545 23.014896 8.5295347 17.679688 7.3105469C17.877122 6.911876 18 6.4713436 18 6C18 4.3549904 16.64501 3 15 3 z M 15 5C15.564129 5 16 5.4358706 16 6C16 6.5641294 15.564129 7 15 7C14.435871 7 14 6.5641294 14 6C14 5.4358706 14.435871 5 15 5 z M 15 9.75L16.25 11L18 11L18 12.75L19.25 14L18 15.25L18 17L16.25 17L15 18.25L13.75 17L12 17L12 15.25L10.75 14L12 12.75L12 11L13.75 11L15 9.75 z M 2.9921875 23 A 1.0001 1.0001 0 1 0 2.9921875 25L26.992188 25 A 1.0001 1.0001 0 1 0 26.992188 23L2.9921875 23 z" fill="#FFFFFF" />
</svg>