<?xml version="1.0" encoding="utf-8"?>
<svg xmlns="http://www.w3.org/2000/svg" viewBox="0 0 30 30" width="480" height="480">
  <path d="M6 4C4.895 4 4 4.895 4 6L4 24C4 25.105 4.895 26 6 26L24 26C25.105 26 26 25.105 26 24L26 6C26 4.895 25.105 4 24 4L6 4 z M 15 7C18.226 7 21.225578 7.9390625 23.767578 9.5390625L21 16L17 16 A 2 2 0 0 0 16.863281 15.273438L19.78125 11.625 A 1.0001 1.0001 0 0 0 18.96875 9.9902344 A 1.0001 1.0001 0 0 0 18.21875 10.375L15.298828 14.025391 A 2 2 0 0 0 15 14 A 2 2 0 0 0 13 16L9 16L6.2324219 9.5390625C8.7744219 7.9390625 11.774 7 15 7 z" fill="#FFFFFF" />
</svg>